<svg xmlns="http://www.w3.org/2000/svg" version="1.1" xmlns:xlink="http://www.w3.org/1999/xlink" xmlns:svgjs="http://svgjs.dev/svgjs" width="1000" height="623" viewBox="0 0 1000 623"><g transform="matrix(1,0,0,1,-0.6060606060606233,0.2522267206477409)"><svg viewBox="0 0 396 247" data-background-color="#ffffff" preserveAspectRatio="xMidYMid meet" height="623" width="1000" xmlns="http://www.w3.org/2000/svg" xmlns:xlink="http://www.w3.org/1999/xlink"><defs></defs><g id="tight-bounds" transform="matrix(1,0,0,1,0.2400000000000091,-0.09999999999999432)"><svg viewBox="0 0 395.52 247.2" height="247.2" width="395.52"><g><svg></svg></g><g><svg viewBox="0 0 395.52 247.2" height="247.2" width="395.52"><g transform="matrix(1,0,0,1,59.83837078651683,37.08)"><svg viewBox="0 0 275.8432584269663 173.04" height="173.04" width="275.8432584269663"><g><svg viewBox="0 0 275.8432584269663 173.04" height="173.04" width="275.8432584269663"><g><svg viewBox="0 0 275.8432584269663 173.04" height="173.04" width="275.8432584269663"><g><svg viewBox="0 0 275.8432584269663 173.04" height="173.04" width="275.8432584269663"><g><svg viewBox="0 0 275.8432584269663 173.04" height="173.04" width="275.8432584269663"><g><svg viewBox="0 0 275.8432584269663 173.04" height="173.04" width="275.8432584269663"><g transform="matrix(1,0,0,1,0,0)"><svg width="275.8432584269663" viewBox="4.349999904632568 -35.25 56.75 35.599998474121094" height="173.04" data-palette-color="#2b2b2b"><path d="M28.75-6.9L28.75-35.25 32.6-35.25 32.6 0 29.45 0 8.2-28.35 8.2 0 4.35 0 4.35-35.25 7.5-35.25 28.75-6.9ZM61.1-13.05L61.1-11.55 43.3-11.55Q43.5-7.3 45.6-5.13 47.7-2.95 51.55-2.95L51.55-2.95Q55.8-2.95 59.35-5.85L59.35-5.85 60.7-2.9Q59.1-1.4 56.6-0.53 54.1 0.35 51.5 0.35L51.5 0.35Q45.8 0.35 42.52-3 39.25-6.35 39.25-12.25L39.25-12.25Q39.25-16 40.7-18.88 42.15-21.75 44.77-23.35 47.4-24.95 50.75-24.95L50.75-24.95Q55.6-24.95 58.35-21.78 61.1-18.6 61.1-13.05L61.1-13.05ZM50.8-21.8Q47.6-21.8 45.67-19.8 43.75-17.8 43.4-14.15L43.4-14.15 57.55-14.15Q57.45-17.85 55.7-19.83 53.95-21.8 50.8-21.8L50.8-21.8Z" opacity="1" transform="matrix(1,0,0,1,0,0)" fill="#2b2b2b" class="undefined-text-0" data-fill-palette-color="primary" id="text-0"></path></svg></g></svg></g></svg></g></svg></g></svg></g></svg></g></svg></g><g><path d="M0 247.2v-247.2h395.52v247.2zM379.915 231.595v-215.99h-364.31v215.99z" fill="#2b2b2b" data-fill-palette-color="tertiary"></path></g></svg></g></svg><rect width="395.52" height="247.2" fill="none" stroke="none" visibility="hidden"></rect></g></svg></g></svg>